<svg version="1.1" id="codeinsight-main" xmlns:x="&ns_extend;" xmlns:i="&ns_ai;" xmlns:graph="&ns_graphs;"
	 xmlns="http://www.w3.org/2000/svg" xmlns:xlink="http://www.w3.org/1999/xlink" x="0px" y="0px" viewBox="0 0 2300 2300"
	 enable-background="new 0 0 2300 2300" xml:space="preserve">
<svg>
		<g id="links">
			<path fill="none" stroke="#1C75BC" stroke-width="4" stroke-miterlimit="10" d="M-17,135c0,0,202.8,190.4,376,304
				c178.3,117,457,249.8,457,249.8"/>
			<line fill="none" stroke="#1C75BC" stroke-width="4" stroke-miterlimit="10" x1="1523.9" y1="1046.7" x2="2322.5" y2="1599.7"/>
			<line fill="none" stroke="#1C75BC" stroke-width="4" stroke-miterlimit="10" x1="1210.4" y1="500.9" x2="1025.2" y2="-7.9"/>
			<line fill="none" stroke="#1C75BC" stroke-width="4" stroke-miterlimit="10" x1="945.8" y1="-17.5" x2="866.4" y2="622.4"/>
			<line fill="none" stroke="#1C75BC" stroke-width="4" stroke-miterlimit="10" x1="1793.6" y1="-7.9" x2="1418" y2="605.5"/>
			<path fill="none" stroke="#1C75BC" stroke-width="4" stroke-miterlimit="10" d="M2244.9-26.3"/>
			<path fill="none" stroke="#1C75BC" stroke-width="4" stroke-miterlimit="10" d="M1410.9,914.5"/>
			<line fill="none" stroke="#1C75BC" stroke-width="4" stroke-miterlimit="10" x1="-86.8" y1="1356.9" x2="759.1" y2="966.8"/>
			<line fill="none" stroke="#1C75BC" stroke-width="4" stroke-miterlimit="10" x1="180.5" y1="1235.4" x2="639.2" y2="1523"/>
			<line fill="none" stroke="#1C75BC" stroke-width="4" stroke-miterlimit="10" x1="1669" y1="1508" x2="2306.8" y2="1063.6"/>
			<path fill="none" stroke="#1C75BC" stroke-width="4" stroke-miterlimit="10" d="M1463,682.6C1957,454.5,2244.9,0,2244.9,0"/>
			<line fill="none" stroke="#1C75BC" stroke-width="4" stroke-miterlimit="10" x1="335.5" y1="423.2" x2="456.9" y2="1408"/>
			<line fill="none" stroke="#1C75BC" stroke-width="4" stroke-miterlimit="10" x1="1158" y1="1279.9" x2="1070" y2="1491"/>
			<path fill="none" stroke="#1C75BC" stroke-width="4" stroke-miterlimit="10" d="M632.3,1028.3
				c34.8,190.1,234.3,483.1,234.3,483.1"/>
			<path fill="none" stroke="#1C75BC" stroke-width="4" stroke-miterlimit="10" d="M1334.4,1501.1c77.7-177,66.6-293.2,66.6-293.2"
				/>
			<path fill="none" stroke="#1C75BC" stroke-width="4" stroke-miterlimit="10" d="M438,5.4c34.8,190.1,146.3,565.4,146.3,565.4"/>
			<path fill="none" stroke="#1C75BC" stroke-width="4" stroke-miterlimit="10" d="M1803,471.5c0,0,14.4,159.6,43.6,396.6
				c15.2,123.1,82.4,451.8,82.4,451.8"/>
			<path fill="none" stroke="#1C75BC" stroke-width="4" stroke-miterlimit="10" d="M1605.8,599c0,0,17.6-95.3,22.2-238.9
				C1637.3,71,1620-7.9,1620-7.9"/>
		</g>
		<g id="dots">
			<circle fill="#2B3990" cx="816" cy="688.8" r="17"/>
			<circle fill="#2B3990" cx="866.4" cy="622.4" r="17"/>
			<circle fill="#2B3990" cx="1150" cy="1296.9" r="17"/>
			<circle fill="#2B3990" cx="1523.9" cy="1046.7" r="17"/>
			<circle fill="#2B3990" cx="1418" cy="605.5" r="17"/>
			<circle fill="#2B3990" cx="1401.6" cy="1207.9" r="17"/>
			<circle fill="#2B3990" cx="1697" cy="1489" r="17"/>
			<circle fill="#2B3990" cx="1210.4" cy="508.5" r="17"/>
			<circle fill="#2B3990" cx="759.1" cy="966.8" r="17"/>
			<circle fill="#2B3990" cx="180.5" cy="1235.4" r="17"/>
			<circle fill="#2B3990" cx="1928.8" cy="1326.6" r="17"/>
			<circle fill="#2B3990" cx="1803" cy="471.5" r="17"/>
			<circle fill="#2B3990" cx="456.9" cy="1408" r="17"/>
			<circle fill="#2B3990" cx="421" cy="1121" r="17"/>
			<circle fill="#2B3990" cx="335.5" cy="428.9" r="17"/>
			<circle fill="#2B3990" cx="632.3" cy="1028.3" r="17"/>
			<circle fill="#2B3990" cx="1074" cy="1486" r="17"/>
			<circle fill="#2B3990" cx="849.4" cy="1488.4" r="17"/>
			<circle fill="#2B3990" cx="601.3" cy="1497" r="17"/>
			<circle fill="#2B3990" cx="1342.4" cy="1489.1" r="17"/>
			<circle fill="#2B3990" cx="586.3" cy="568.7" r="17"/>
			<circle fill="#2B3990" cx="1479" cy="673.8" r="17"/>
			<circle fill="#2B3990" cx="1603.8" cy="608.5" r="17"/>
			<circle fill="#2B3990" cx="1630.7" cy="260.5" r="17"/>
		</g>
		<g id="logo">

				<circle id="_x3C_outer-circle_x3E_" fill="#FFFFFF" stroke="#1C75BC" stroke-width="4" stroke-miterlimit="10" cx="1150" cy="898.2" r="398.7"/>
			<polyline id="_x3C_link_x3E_" fill="#FFFFFF" stroke="#1C75BC" stroke-width="5" stroke-miterlimit="10" points="1070.7,742.7
				1303.2,682.6 1381,868.1 1201.4,966.8 945.8,947.5 1090.4,1088.3 1243,1146.4 1204.4,985.2 			"/>

				<circle id="_x3C_circle7_x3E_" fill="#FFFFFF" stroke="#1C75BC" stroke-width="7" stroke-miterlimit="10" cx="1243" cy="1146.4" r="67.4"/>

				<circle id="_x3C_circle6_x3E_" fill="#FFFFFF" stroke="#1C75BC" stroke-width="9" stroke-miterlimit="10" cx="1090.4" cy="1088.3" r="41.7"/>

				<circle id="_x3C_circle5_x3E_" fill="#FFFFFF" stroke="#1C75BC" stroke-width="5" stroke-miterlimit="10" cx="945.8" cy="947.5" r="79.4"/>

				<circle id="_x3C_circle4_x3E_" fill="#FFFFFF" stroke="#F26522" stroke-width="9" stroke-miterlimit="10" cx="1201.4" cy="966.8" r="41.7"/>

				<circle id="_x3C_circle3_x3E_" fill="#FFFFFF" stroke="#1C75BC" stroke-width="12" stroke-miterlimit="10" cx="1381" cy="868.1" r="57"/>

				<circle id="_x3C_circle2_x3E_" fill="#FFFFFF" stroke="#1C75BC" stroke-width="5" stroke-miterlimit="10" cx="1303.2" cy="682.6" r="60.1"/>

				<circle id="_x3C_circle1_x3E_" fill="#FFFFFF" stroke="#1C75BC" stroke-width="10" stroke-miterlimit="10" cx="1070.7" cy="742.7" r="113.8"/>
		</g>
		<g id="title">
			<path fill="#FFFFFF" stroke="#1C75BC" stroke-width="2" stroke-miterlimit="10" d="M1688.9,1640h-1081c-6.6,0-12-5.4-12-12v-130
				c0-6.6,5.4-12,12-12h1081c6.6,0,12,5.4,12,12v130C1700.9,1634.6,1695.5,1640,1688.9,1640z"/>
			<g>
				<path fill="#1C75BC" d="M642.6,1601.2c-12.4-10.4-15.7-24.2-15.7-35.9c0-8.3,2.7-22.6,14.7-33.3c9.2-8,21.2-12.9,39.9-12.9
					c7.9,0,12.6,0.6,18.3,1.3c4.7,0.7,8.9,1.6,12.6,2c1.4,0.1,1.9,0.7,1.9,1.4c0,1-0.3,2.4-0.6,6.7c-0.3,4-0.3,10.7-0.4,13.2
					c-0.1,1.7-0.6,3-1.7,3c-1,0-1.3-1-1.3-2.6c-0.1-3.9-1.7-8.2-4.9-11.3c-4.3-4.1-12.7-7.2-24.3-7.2c-11,0-18,2-23.7,6.9
					c-9.3,8-11.6,19.7-11.6,31.6c0,28.9,22.3,42.6,39.2,42.6c11.2,0,17.3-0.9,22.3-6.4c2.1-2.4,3.9-5.9,4.3-8.2
					c0.3-1.9,0.6-2.4,1.6-2.4c0.9,0,1.4,1.1,1.4,2.1c0,1.4-1.4,12-2.7,16.2c-0.6,2.1-1.1,2.7-3.3,3.6c-5,2-14.6,2.7-22.7,2.7
					C668.6,1614.4,654,1610.8,642.6,1601.2z"/>
				<path fill="#1C75BC" d="M727.7,1566.7c0-20.7,14.6-47.6,52.8-47.6c31.7,0,51.5,17.6,51.5,45.5c0,27.9-20.3,49.8-52.8,49.8
					C742.5,1614.4,727.7,1588.3,727.7,1566.7z M813.2,1569c0-26.9-16.2-43.5-36.5-43.5c-14,0-30.5,7.4-30.5,37.5
					c0,25,14.3,44.8,38,44.8C793.2,1607.8,813.2,1603.6,813.2,1569z"/>
				<path fill="#1C75BC" d="M855.4,1556c0-18.4,0-21.9-0.1-25.7c-0.3-4.1-1.4-5.4-5.4-6.6c-1-0.3-3.1-0.4-5-0.4
					c-1.3,0-2.1-0.4-2.1-1.3s1-1.1,2.9-1.1c6.6,0,14.6,0.3,18.2,0.3c3.9,0,12.9-0.3,20.5-0.3c15.7,0,36.9,0,50.6,13.9
					c6.3,6.3,11.9,16.4,11.9,30.9c0,15.3-6.6,26.9-13.7,33.9c-5.7,5.7-19,14.3-42.2,14.3c-4.6,0-10-0.4-15-0.7
					c-5-0.4-9.6-0.7-12.7-0.7c-1.4,0-4.1,0.1-7.2,0.1c-3,0.1-6.1,0.3-8.7,0.3c-1.6,0-2.4-0.4-2.4-1.3c0-0.6,0.4-1.3,2-1.3
					c1.9,0,3.3-0.1,4.4-0.4c2.6-0.6,3.3-2.9,3.7-6.4c0.6-5.1,0.6-14.7,0.6-25.9V1556z M872.3,1569.5c0,12.9,0.1,22.2,0.3,24.6
					c0.1,3,0.4,7.3,1.4,8.6c1.6,2.3,6.6,4.9,16.4,4.9c11.4,0,19.9-2,27.5-8.3c8.2-6.7,10.7-17.6,10.7-30.2
					c0-15.4-6.1-25.5-11.7-30.3c-11.6-10.3-25.3-11.6-35.2-11.6c-2.6,0-6.7,0.3-7.7,0.9c-1.1,0.4-1.6,1-1.6,2.4
					c-0.1,4.1-0.1,14.2-0.1,23.7V1569.5z"/>
				<path fill="#1C75BC" d="M972.8,1556c0-18.4,0-21.9-0.1-25.7c-0.3-4.1-1.4-5.4-5.4-6.6c-1-0.3-3.1-0.4-5-0.4
					c-1.3,0-2.1-0.4-2.1-1.3s1-1.1,2.9-1.1c6.6,0,14.6,0.3,18.2,0.3c4,0,31.9,0.1,34.3,0c2.3-0.1,4.3-0.6,5.3-0.7
					c0.7-0.1,1.4-0.6,2-0.6c0.7,0,0.9,0.6,0.9,1.1c0,0.9-0.7,2.3-1,7.9c-0.1,1.3-0.4,6.6-0.7,8c-0.1,0.6-0.4,2-1.4,2
					c-0.9,0-1-0.6-1-1.6c0-0.9-0.1-3-0.9-4.4c-1-2.1-2-3.9-8.3-4.4c-2.1-0.3-17.2-0.6-19.7-0.6c-0.6,0-0.9,0.4-0.9,1.1v30
					c0,0.7,0.1,1.3,0.9,1.3c2.9,0,19.2,0,22-0.3c3-0.3,4.9-0.6,6-1.9c1-0.9,1.4-1.6,2-1.6s1,0.6,1,1.3c0,0.7-0.3,2.7-1,8.9
					c-0.3,2.4-0.6,7.3-0.6,8.2c0,1-0.1,2.7-1.3,2.7c-0.9,0-1.1-0.4-1.1-1c-0.1-1.3-0.1-2.9-0.4-4.4c-0.7-2.4-2.3-4.3-7-4.7
					c-2.3-0.3-16.6-0.6-19.7-0.6c-0.6,0-0.7,0.6-0.7,1.3v9.7c0,4.1-0.1,14.4,0,18c0.3,8.3,4.1,10.2,17,10.2c3.3,0,8.6-0.1,11.9-1.6
					c3.1-1.4,4.6-4,5.4-9c0.3-1.3,0.6-1.9,1.4-1.9c1,0,1.1,1.6,1.1,2.9c0,2.7-1,11-1.7,13.4c-0.9,3.1-2,3.1-6.7,3.1
					c-9.4,0-17-0.1-23.2-0.4c-6.1-0.1-10.9-0.3-14.6-0.3c-1.4,0-4.1,0.1-7.2,0.1c-3,0.1-6.1,0.3-8.7,0.3c-1.6,0-2.4-0.4-2.4-1.3
					c0-0.6,0.4-1.3,2-1.3c1.9,0,3.3-0.1,4.4-0.4c2.6-0.6,3.3-2.9,3.7-6.4c0.6-5.1,0.6-14.7,0.6-25.9V1556z"/>
				<path fill="#1C75BC" d="M1058,1546.1c0-21.7,0-25.7-0.3-30.3c-0.3-4.9-1.7-7.3-4.9-8c-1.6-0.4-3.4-0.6-5.1-0.6
					c-1.4,0-2.3-0.3-2.3-1.4c0-0.9,1.1-1.1,3.4-1.1c5.4,0,14.4,0.4,18.6,0.4c3.6,0,12-0.4,17.4-0.4c1.9,0,3,0.3,3,1.1
					c0,1.1-0.9,1.4-2.3,1.4c-1.4,0-2.6,0.1-4.3,0.4c-3.9,0.7-5,3.1-5.3,8.2c-0.3,4.6-0.3,8.6-0.3,30.3v25.2c0,13.9,0,25.2,0.6,31.3
					c0.4,3.9,1.4,6.4,5.7,7c2,0.3,5.1,0.6,7.3,0.6c1.6,0,2.3,0.4,2.3,1.1c0,1-1.1,1.4-2.7,1.4c-9.4,0-18.4-0.4-22.3-0.4
					c-3.3,0-12.3,0.4-18,0.4c-1.9,0-2.9-0.4-2.9-1.4c0-0.7,0.6-1.1,2.3-1.1c2.1,0,3.9-0.3,5.1-0.6c2.9-0.6,3.7-3,4.1-7.1
					c0.7-6,0.7-17.3,0.7-31.2V1546.1z"/>
				<path fill="#1C75BC" d="M1124.8,1596.2c0.3,9.4,1.9,12.3,4.3,13.2c2.1,0.7,4.6,0.9,6.6,0.9c1.4,0,2.1,0.6,2.1,1.3
					c0,1-1.1,1.3-2.9,1.3c-8.2,0-14-0.4-16.3-0.4c-1.1,0-7.2,0.4-13.6,0.4c-1.7,0-2.9-0.1-2.9-1.3c0-0.7,0.9-1.3,2-1.3
					c1.7,0,4-0.1,5.7-0.6c3.3-0.9,3.7-4.1,3.9-14.7l1.1-72.1c0-2.4,0.9-4.1,2.1-4.1c1.6,0,3.3,1.9,5.4,4
					c1.6,1.6,20.5,20.9,38.8,38.8c8.6,8.4,25.3,25.6,27.2,27.3h0.6l-1.3-54.1c-0.1-7.4-1.3-9.6-4.3-10.7c-1.9-0.7-4.9-0.7-6.6-0.7
					c-1.6,0-2-0.6-2-1.3c0-1,1.3-1.1,3.1-1.1c6.6,0,13.3,0.3,16,0.3c1.4,0,6.1-0.3,12.3-0.3c1.7,0,2.9,0.1,2.9,1.1
					c0,0.7-0.7,1.3-2.1,1.3c-1.3,0-2.3,0-3.9,0.4c-3.4,1-4.4,3.1-4.6,10l-1.4,76.7c0,2.7-1,3.9-2,3.9c-2.1,0-3.9-1.3-5.1-2.6
					c-7.9-7.3-23.6-22.3-36.8-35c-13.7-13.2-27-27.9-29.5-30h-0.4L1124.8,1596.2z"/>
				<path fill="#1C75BC" d="M1230.3,1611.2c-2-0.9-2.4-1.4-2.4-4.1c0-6.6,0.6-14.2,0.7-16.2c0-1.9,0.6-3.1,1.6-3.1
					c1.1,0,1.3,1.1,1.3,2c0,1.6,0.4,4.1,1.1,6.3c2.7,9,12.2,12,20,12c10.9,0,17.4-6.9,17.4-15.4c0-5.3-1.3-10.6-12.4-17.2l-7.3-4.3
					c-14.9-8.7-19.7-16.9-19.7-27.6c0-14.9,14.3-24.5,31.7-24.5c8.2,0,14.6,1.1,17.9,2c1.1,0.3,1.7,0.7,1.7,1.6
					c0,1.6-0.4,5-0.4,14.6c0,2.6-0.6,3.9-1.6,3.9c-0.9,0-1.3-0.7-1.3-2.1c0-1.1-0.6-4.9-3.3-8c-1.9-2.3-5.9-5.7-14-5.7
					c-9,0-17.2,4.7-17.2,13c0,5.4,2,9.7,13.3,16l5.1,2.9c16.6,9.2,21.7,18.4,21.7,29.5c0,9-3.4,16.3-12.6,22.7c-6,4.3-14.3,5-21,5
					C1243.5,1614.4,1235.8,1613.6,1230.3,1611.2z"/>
				<path fill="#1C75BC" d="M1311.5,1556c0-18.4,0-21.9-0.1-25.7c-0.3-4.1-1.6-5.6-4.3-6.4c-1.4-0.4-3-0.6-4.6-0.6
					c-1.3,0-2-0.3-2-1.4c0-0.7,1-1,3-1c4.7,0,13.3,0.3,16.9,0.3c3.1,0,11.3-0.3,16.2-0.3c1.6,0,2.6,0.3,2.6,1c0,1.1-0.7,1.4-2,1.4
					s-2.3,0.1-3.7,0.4c-3.4,0.6-4.4,2.3-4.7,6.6c-0.3,3.9-0.3,7.3-0.3,25.7v21.5c0,11.7,0,21.5,0.6,26.6c0.4,3.3,1.3,5.1,5,5.7
					c1.7,0.3,4.6,0.4,6.4,0.4c1.4,0,2,0.7,2,1.3c0,0.9-1,1.3-2.4,1.3c-8.3,0-16.9-0.4-20.3-0.4c-2.9,0-11.4,0.4-16.4,0.4
					c-1.6,0-2.4-0.4-2.4-1.3c0-0.6,0.4-1.3,2-1.3c1.9,0,3.3-0.1,4.4-0.4c2.6-0.6,3.3-2.3,3.7-5.9c0.6-5,0.6-14.7,0.6-26.5V1556z"/>
				<path fill="#1C75BC" d="M1445.1,1604.6c0,3.3,0,3.4-1.6,4.3c-8.4,4.1-20.9,5.4-30.7,5.4c-30.9,0-58.2-14-58.2-47.6
					c0-19.4,10.4-33,22-39.8c12-7,23.3-7.9,33.9-7.9c8.7,0,19.7,1.4,22.3,2c2.6,0.4,7,1.1,10,1.3c1.4,0.1,1.7,0.6,1.7,1.4
					c0,1.4-0.9,4.7-0.9,20c0,1.9-0.7,2.7-1.7,2.7c-0.9,0-1.1-0.6-1.3-1.6c-0.3-2.7-1-6.6-4.3-10c-3.7-3.9-13.2-9.3-27.3-9.3
					c-6.9,0-15.6,0.1-24.3,7.2c-7,5.7-11.6,14.7-11.6,29.6c0,26.2,16.9,45.2,43.8,45.2c3.3,0,5.9,0,8.9-1.3c1.9-0.9,2.4-2.1,2.4-4.3
					v-11.2c0-6,0-10.6-0.1-14.3c-0.1-4.1-1.4-5.4-5.4-6.6c-1-0.3-3.1-0.4-4.9-0.4c-1.1,0-2-0.6-2-1.3c0-1,1-1.1,2.7-1.1
					c6.6,0,15.6,0.3,19.3,0.3c4,0,10.6-0.3,14.7-0.3c1.7,0,2.6,0.1,2.6,1.1c0,0.7-0.7,1.3-1.6,1.3c-1,0-2,0.1-3.4,0.4
					c-3.4,0.6-4.7,2.3-4.9,6.6c-0.1,3.7-0.1,8.6-0.1,14.6V1604.6z"/>
				<path fill="#1C75BC" d="M1545.5,1560.4c0.3,0,0.7-0.1,0.7-0.9v-2.6c0-18.4-0.1-22.9-0.3-26.7c-0.3-4.1-1.4-5.4-5.4-6.6
					c-1-0.3-3.1-0.4-4.9-0.4c-1.4,0-2.1-0.4-2.1-1.3s0.9-1.1,2.7-1.1c6.7,0,15.6,0.3,18.9,0.3c3,0,11.3-0.3,16.2-0.3
					c1.9,0,2.7,0.3,2.7,1.1s-0.9,1.3-2.3,1.3c-1,0-2.1,0.1-3.7,0.4c-3.3,0.6-4.3,2.3-4.6,6.6c-0.3,3.9-0.3,7.3-0.3,25.7v21.5
					c0,11.2,0,20.7,0.6,26c0.4,3.4,1.1,5.7,5,6.3c1.7,0.3,4.4,0.4,6.4,0.4c1.3,0,2,0.7,2,1.3c0,0.9-1,1.3-2.6,1.3
					c-8.2,0-16.4-0.4-19.9-0.4c-2.9,0-11.7,0.4-16.6,0.4c-1.7,0-2.7-0.4-2.7-1.3c0-0.6,0.6-1.3,2-1.3c2,0,3.4-0.1,4.6-0.4
					c2.6-0.6,3.3-2.9,3.7-6.4c0.6-5.1,0.6-14.4,0.6-25.6v-9.3c0-0.4-0.4-0.7-0.7-0.7H1498c-0.4,0-0.9,0.1-0.9,0.7v9.3
					c0,11.2,0.1,20.4,0.7,25.7c0.4,3.4,1.1,5.7,4.9,6.3c1.7,0.3,4.6,0.4,6.4,0.4c1.4,0,2,0.7,2,1.3c0,0.9-1,1.3-2.6,1.3
					c-8.2,0-16.9-0.4-20.5-0.4c-2.9,0-11.2,0.4-16.2,0.4c-1.6,0-2.4-0.4-2.4-1.3c0-0.6,0.4-1.3,2-1.3c1.9,0,3.3-0.1,4.4-0.4
					c2.6-0.6,3.3-2.9,3.7-6.4c0.6-5.1,0.6-14.7,0.6-25.9V1556c0-18.4,0-21.9-0.1-25.7c-0.3-4.1-1.4-5.4-5.4-6.6
					c-1-0.3-3.1-0.4-5-0.4c-1.3,0-2.1-0.4-2.1-1.3s1-1.1,2.7-1.1c6.7,0,15,0.3,18.4,0.3c3,0,11.7-0.3,16.7-0.3
					c1.7,0,2.6,0.3,2.6,1.1s-0.7,1.3-2.3,1.3c-1,0-2.1,0.1-3.6,0.4c-3.4,0.6-4.4,2.3-4.7,6.6c-0.3,3.9-0.3,8.3-0.3,26.7v2.6
					c0,0.7,0.4,0.9,0.9,0.9H1545.5z"/>
				<path fill="#1C75BC" d="M1621,1528.3l-18.7,0.4c-7.3,0.1-10.3,1-12.2,3.7c-1.3,1.7-1.9,3.3-2.1,4.1c-0.3,1-0.6,1.6-1.4,1.6
					c-0.9,0-1.1-0.7-1.1-2c0-2,2.4-13.7,2.7-14.7c0.3-1.6,0.7-2.3,1.4-2.3c1,0,2.3,1,5.4,1.4c3.7,0.4,8.4,0.6,12.6,0.6h51.1
					c4,0,6.7-0.3,8.6-0.6c2-0.3,3-0.6,3.4-0.6c0.9,0,1,0.7,1,2.6c0,2.6-0.3,11.6-0.3,14.7c-0.1,1.3-0.4,2-1.1,2
					c-1,0-1.3-0.6-1.4-2.4l-0.1-1.3c-0.3-3.1-3.6-6.9-14.9-7l-15.9-0.3v49.2c0,11.2,0.1,20.7,0.7,26c0.4,3.4,1.1,5.7,4.9,6.3
					c1.7,0.3,4.6,0.4,6.4,0.4c1.4,0,2,0.7,2,1.3c0,0.9-1,1.3-2.4,1.3c-8.3,0-16.7-0.4-20.3-0.4c-2.9,0-11.4,0.4-16.4,0.4
					c-1.6,0-2.4-0.4-2.4-1.3c0-0.6,0.4-1.3,2-1.3c1.9,0,3.4-0.1,4.4-0.4c2.6-0.6,3.3-2.9,3.7-6.4c0.6-5.1,0.6-14.7,0.6-25.9V1528.3z
					"/>
			</g>
		</g>
		<g id="bar-left">
			<rect y="1843.7" fill="#F15A29" width="812.9" height="27.9"/>
			<rect y="1878.7" fill="#F15A29" width="1042.9" height="27.9"/>
			<rect y="1913.7" fill="#F15A29" width="865.5" height="27.9"/>
			<rect y="1948.7" fill="#F15A29" width="1296.2" height="27.9"/>
			<rect y="1983.7" fill="#F15A29" width="906.8" height="27.9"/>
			<rect y="2018.7" fill="#F15A29" width="311.3" height="27.9"/>
			<rect y="2053.8" fill="#F15A29" width="993.3" height="27.9"/>
			<rect y="2088.8" fill="#F15A29" width="755.4" height="27.9"/>
			<rect y="2123.8" fill="#F15A29" width="1325.5" height="27.9"/>
		</g>
		<g id="bar-right">
			<rect x="1487.1" y="2123.8" fill="#F15A29" width="812.9" height="27.9"/>
			<rect x="1257.1" y="2088.8" fill="#F15A29" width="1042.9" height="27.9"/>
			<rect x="1434.5" y="2053.8" fill="#F15A29" width="865.5" height="27.9"/>
			<rect x="1003.8" y="2018.7" fill="#F15A29" width="1296.2" height="27.9"/>
			<rect x="1393.2" y="1983.7" fill="#F15A29" width="906.8" height="27.9"/>
			<rect x="1988.7" y="1948.7" fill="#F15A29" width="311.3" height="27.9"/>
			<rect x="1306.7" y="1913.7" fill="#F15A29" width="993.3" height="27.9"/>
			<rect x="1544.6" y="1878.7" fill="#F15A29" width="755.4" height="27.9"/>
			<rect x="974.5" y="1843.7" fill="#F15A29" width="1325.5" height="27.9"/>
		</g>
	</g>
</svg>
